<?xml version="1.0" encoding="UTF-8" standalone="no"?>
<!-- Created with Inkscape (http://www.inkscape.org/) -->

<svg
   xmlns:dc="http://purl.org/dc/elements/1.1/"
   xmlns:cc="http://creativecommons.org/ns#"
   xmlns:rdf="http://www.w3.org/1999/02/22-rdf-syntax-ns#"
   xmlns:svg="http://www.w3.org/2000/svg"
   xmlns="http://www.w3.org/2000/svg"
   xmlns:sodipodi="http://sodipodi.sourceforge.net/DTD/sodipodi-0.dtd"
   xmlns:inkscape="http://www.inkscape.org/namespaces/inkscape"
   width="60.767529mm"
   height="10.319783mm"
   viewBox="0 0 60.767528 10.319784"
   version="1.1"
   id="svg8"
   inkscape:version="0.92.3 (2405546, 2018-03-11)"
   sodipodi:docname="logo.svg">
  <defs
     id="defs2" />
  <sodipodi:namedview
     id="base"
     pagecolor="#ffffff"
     bordercolor="#666666"
     borderopacity="1.0"
     inkscape:pageopacity="0.0"
     inkscape:pageshadow="2"
     inkscape:zoom="2.8"
     inkscape:cx="133.25351"
     inkscape:cy="8.4747474"
     inkscape:document-units="mm"
     inkscape:current-layer="g3792"
     showgrid="false"
     showguides="true"
     inkscape:guide-bbox="true"
     inkscape:window-width="1920"
     inkscape:window-height="1053"
     inkscape:window-x="0"
     inkscape:window-y="27"
     inkscape:window-maximized="1">
    <sodipodi:guide
       position="24.277549,26.699511"
       orientation="0,1"
       id="guide3732"
       inkscape:locked="false" />
    <sodipodi:guide
       position="28.039142,2.1456545"
       orientation="0,1"
       id="guide16"
       inkscape:locked="false" />
  </sodipodi:namedview>
  <metadata
     id="metadata5">
    <rdf:RDF>
      <cc:Work
         rdf:about="">
        <dc:format>image/svg+xml</dc:format>
        <dc:type
           rdf:resource="http://purl.org/dc/dcmitype/StillImage" />
        <dc:title></dc:title>
      </cc:Work>
    </rdf:RDF>
  </metadata>
  <g
     inkscape:label="Camada 1"
     inkscape:groupmode="layer"
     id="layer1"
     transform="translate(-84.390601,-130.25026)">
    <g
       id="g3792"
       transform="translate(1.4269384,0.85044642)">
      <g
         aria-label="Codogno"
         style="font-style:normal;font-weight:normal;font-size:10.58333302px;line-height:1.25;font-family:sans-serif;letter-spacing:0px;word-spacing:0px;fill:#217844;fill-opacity:1;stroke:none;stroke-width:0.26458332"
         id="text3715">
        <path
           d="m 115.23511,135.12556 0.0103,0.031 q 0.0207,1.20922 -0.62012,1.81384 -0.63562,0.59944 -1.81901,0.59944 -1.2144,0 -1.92753,-0.71313 -0.71314,-0.7183 -0.71314,-2.03605 v -2.23242 q 0,-1.31258 0.6873,-2.03605 0.69246,-0.72347 1.86552,-0.72347 1.23506,0 1.89652,0.59944 0.66146,0.59945 0.64079,1.81384 l -0.0103,0.031 h -1.41594 q 0,-0.72347 -0.25838,-1.01286 -0.25322,-0.28939 -0.85266,-0.28939 -0.54777,0 -0.82166,0.39791 -0.27388,0.39274 -0.27388,1.20923 v 2.24276 q 0,0.82165 0.29455,1.21956 0.29456,0.39274 0.88884,0.39274 0.5426,0 0.78031,-0.28422 0.23771,-0.28939 0.23771,-1.02319 z"
           style="font-style:normal;font-variant:normal;font-weight:bold;font-stretch:condensed;font-family:Roboto;-inkscape-font-specification:'Roboto Bold Condensed';letter-spacing:-0.46566668px;fill:#217844;fill-opacity:1;stroke-width:0.26458332"
           id="path45" />
        <path
           d="m 115.4154,134.61396 q 0,-1.2609 0.59945,-2.05155 0.60461,-0.79582 1.69498,-0.79582 1.08521,0 1.69499,0.79582 0.60978,0.79065 0.60978,2.05155 v 0.11886 q 0,1.2609 -0.60978,2.05155 -0.60462,0.78548 -1.68465,0.78548 -1.09554,0 -1.70016,-0.78548 -0.60461,-0.78548 -0.60461,-2.05155 z m 1.45211,0.11886 q 0,0.78031 0.1912,1.24023 0.19637,0.45992 0.66146,0.45992 0.44441,0 0.64078,-0.45992 0.19638,-0.45992 0.19638,-1.24023 v -0.11886 q 0,-0.76998 -0.19638,-1.23506 -0.19637,-0.47026 -0.65112,-0.47026 -0.45475,0 -0.65112,0.47026 -0.1912,0.47025 -0.1912,1.23506 z"
           style="font-style:normal;font-variant:normal;font-weight:bold;font-stretch:condensed;font-family:Roboto;-inkscape-font-specification:'Roboto Bold Condensed';letter-spacing:-0.46566668px;fill:#217844;fill-opacity:1;stroke-width:0.26458332"
           id="path47" />
        <path
           d="m 120.14321,134.69665 q 0,-1.31775 0.49093,-2.12391 0.49093,-0.80615 1.3901,-0.80615 0.33589,0 0.60461,0.1602 0.27388,0.1602 0.48576,0.45475 v -2.98173 h 1.45727 v 8.06152 h -1.2454 l -0.10852,-0.63045 q -0.22221,0.36174 -0.52193,0.55294 -0.29972,0.18603 -0.68213,0.18603 -0.88883,0 -1.37976,-0.75447 -0.49093,-0.75964 -0.49093,-2.01021 z m 1.44694,0.10852 q 0,0.75964 0.18604,1.19372 0.18603,0.42892 0.61495,0.42892 0.23771,0 0.41858,-0.10852 0.18603,-0.11369 0.30489,-0.33073 v -2.56832 q -0.11886,-0.23771 -0.30489,-0.37207 -0.18604,-0.13436 -0.41341,-0.13436 -0.42375,0 -0.61495,0.49092 -0.19121,0.49093 -0.19121,1.29192 z"
           style="font-style:normal;font-variant:normal;font-weight:bold;font-stretch:condensed;font-family:Roboto;-inkscape-font-specification:'Roboto Bold Condensed';letter-spacing:-0.46566668px;fill:#217844;fill-opacity:1;stroke-width:0.26458332"
           id="path49" />
        <path
           d="m 124.90203,134.61396 q 0,-1.2609 0.59945,-2.05155 0.60461,-0.79582 1.69499,-0.79582 1.0852,0 1.69498,0.79582 0.60979,0.79065 0.60979,2.05155 v 0.11886 q 0,1.2609 -0.60979,2.05155 -0.60461,0.78548 -1.68465,0.78548 -1.09554,0 -1.70015,-0.78548 -0.60462,-0.78548 -0.60462,-2.05155 z m 1.45211,0.11886 q 0,0.78031 0.1912,1.24023 0.19638,0.45992 0.66146,0.45992 0.44442,0 0.64079,-0.45992 0.19637,-0.45992 0.19637,-1.24023 v -0.11886 q 0,-0.76998 -0.19637,-1.23506 -0.19637,-0.47026 -0.65112,-0.47026 -0.45475,0 -0.65113,0.47026 -0.1912,0.47025 -0.1912,1.23506 z"
           style="font-style:normal;font-variant:normal;font-weight:bold;font-stretch:condensed;font-family:Roboto;-inkscape-font-specification:'Roboto Bold Condensed';letter-spacing:-0.46566668px;fill:#217844;fill-opacity:1;stroke-width:0.26458332"
           id="path51" />
        <path
           d="m 129.63502,134.69665 q 0,-1.31775 0.49092,-2.12391 0.49093,-0.80615 1.3901,-0.80615 0.38757,0 0.67696,0.19637 0.29455,0.1912 0.5116,0.54777 l 0.0982,-0.64079 h 1.26607 v 5.56039 q 0,1.09037 -0.64078,1.68982 -0.63562,0.59944 -1.76734,0.59944 -0.37207,0 -0.78548,-0.11368 -0.40824,-0.11369 -0.76998,-0.31006 l 0.24288,-1.10588 q 0.31006,0.16537 0.62012,0.24805 0.31006,0.0827 0.68213,0.0827 0.48575,0 0.7183,-0.26872 0.23771,-0.26355 0.23771,-0.82682 v -0.41341 q -0.21187,0.27388 -0.48576,0.41858 -0.26872,0.13952 -0.61495,0.13952 -0.88883,0 -1.37976,-0.75447 -0.49092,-0.75964 -0.49092,-2.01021 z m 1.45727,0.10852 q 0,0.76481 0.18087,1.19372 0.18087,0.42892 0.61495,0.42892 0.24804,0 0.42374,-0.10336 0.18087,-0.10335 0.29456,-0.29972 v -2.64583 q -0.11886,-0.22221 -0.29972,-0.34107 -0.1757,-0.12402 -0.41341,-0.12402 -0.42375,0 -0.61495,0.49092 -0.18604,0.48576 -0.18604,1.29192 z"
           style="font-style:normal;font-variant:normal;font-weight:bold;font-stretch:condensed;font-family:Roboto;-inkscape-font-specification:'Roboto Bold Condensed';letter-spacing:-0.46566668px;fill:#217844;fill-opacity:1;stroke-width:0.26458332"
           id="path53" />
        <path
           d="m 135.90279,131.86994 0.062,0.78032 q 0.23771,-0.41858 0.57878,-0.65112 0.34623,-0.23255 0.76998,-0.23255 0.71313,0 1.11621,0.55811 0.40824,0.55293 0.40824,1.74149 v 3.39514 h -1.45728 v -3.39514 q 0,-0.63045 -0.15502,-0.88883 -0.14987,-0.26355 -0.45992,-0.26355 -0.24288,0 -0.43925,0.11369 -0.19121,0.11368 -0.32557,0.32039 v 4.11344 h -1.45727 v -5.59139 z"
           style="font-style:normal;font-variant:normal;font-weight:bold;font-stretch:condensed;font-family:Roboto;-inkscape-font-specification:'Roboto Bold Condensed';letter-spacing:-0.46566668px;fill:#217844;fill-opacity:1;stroke-width:0.26458332"
           id="path55" />
        <path
           d="m 139.13199,134.61396 q 0,-1.2609 0.59944,-2.05155 0.60462,-0.79582 1.69499,-0.79582 1.08521,0 1.69499,0.79582 0.60978,0.79065 0.60978,2.05155 v 0.11886 q 0,1.2609 -0.60978,2.05155 -0.60462,0.78548 -1.68465,0.78548 -1.09554,0 -1.70016,-0.78548 -0.60461,-0.78548 -0.60461,-2.05155 z m 1.45211,0.11886 q 0,0.78031 0.1912,1.24023 0.19637,0.45992 0.66146,0.45992 0.44441,0 0.64078,-0.45992 0.19637,-0.45992 0.19637,-1.24023 v -0.11886 q 0,-0.76998 -0.19637,-1.23506 -0.19637,-0.47026 -0.65112,-0.47026 -0.45475,0 -0.65112,0.47026 -0.1912,0.47025 -0.1912,1.23506 z"
           style="font-style:normal;font-variant:normal;font-weight:bold;font-stretch:condensed;font-family:Roboto;-inkscape-font-specification:'Roboto Bold Condensed';letter-spacing:-0.46566668px;fill:#217844;fill-opacity:1;stroke-width:0.26458332"
           id="path57" />
      </g>
      <g
         aria-label="Jean"
         style="font-style:normal;font-weight:normal;font-size:10.58333302px;line-height:1.25;font-family:sans-serif;letter-spacing:0px;word-spacing:0px;fill:#333333;fill-opacity:1;stroke:none;stroke-width:0.26458332"
         id="text3715-7" />
      <path
         inkscape:connector-curvature="0"
         d="m 94.124974,130.07056 h 1.457276 v 5.18315 q 0,1.12138 -0.604614,1.788 -0.599447,0.66146 -1.545126,0.66146 -1.064534,0 -1.679484,-0.58911 -0.614949,-0.58911 -0.594279,-1.72083 l 0.0155,-0.031 h 1.410767 q 0,0.61495 0.232544,0.9095 0.237711,0.29456 0.614949,0.29456 0.304891,0 0.496094,-0.3514 0.19637,-0.3514 0.19637,-0.96118 z"
         style="font-style:normal;font-variant:normal;font-weight:bold;font-stretch:condensed;font-size:10.58333302px;line-height:1.25;font-family:Roboto;-inkscape-font-specification:'Roboto Bold Condensed';letter-spacing:-0.46566668px;word-spacing:0px;fill:#333333;fill-opacity:1;stroke:none;stroke-width:0.26458332"
         id="path36" />
      <path
         inkscape:connector-curvature="0"
         d="m 98.320522,137.70317 q -1.105876,0 -1.715658,-0.76481 -0.609781,-0.76481 -0.609781,-1.96887 v -0.21188 q 0,-1.26607 0.583943,-2.06189 0.589112,-0.79581 1.653646,-0.79581 0.98702,0 1.514119,0.67696 0.527099,0.67696 0.527099,1.83968 v 0.79582 h -2.821532 q 0.03617,0.62011 0.279053,0.98702 0.248046,0.3669 0.759643,0.3669 0.434082,0 0.72347,-0.0982 0.294556,-0.10335 0.630453,-0.32039 l 0.377233,0.90951 q -0.299719,0.27388 -0.811315,0.45992 -0.506429,0.18603 -1.090373,0.18603 z m -0.08785,-4.66121 q -0.366903,0 -0.54777,0.32556 -0.1757,0.32039 -0.222209,0.88367 h 1.384929 v -0.1292 q 0,-0.51159 -0.144695,-0.79581 -0.139526,-0.28422 -0.470255,-0.28422 z"
         style="font-style:normal;font-variant:normal;font-weight:bold;font-stretch:condensed;font-size:10.58333302px;line-height:1.25;font-family:Roboto;-inkscape-font-specification:'Roboto Bold Condensed';letter-spacing:-0.46566668px;word-spacing:0px;fill:#333333;fill-opacity:1;stroke:none;stroke-width:0.26458332"
         id="path38" />
      <path
         inkscape:connector-curvature="0"
         d="m 103.34289,137.59465 q -0.0827,-0.18603 -0.13952,-0.40308 -0.0517,-0.21704 -0.0775,-0.44441 -0.18603,0.41858 -0.49092,0.68729 -0.29973,0.26872 -0.73898,0.26872 -0.76481,0 -1.17822,-0.44442 -0.40824,-0.44958 -0.40824,-1.2299 0,-0.81648 0.53743,-1.26607 0.5426,-0.45475 1.61747,-0.45475 h 0.63562 v -0.46509 q 0,-0.41858 -0.15503,-0.64079 -0.15503,-0.22737 -0.45992,-0.22737 -0.26871,0 -0.40824,0.18086 -0.13953,0.18087 -0.13953,0.51677 l -1.4056,-0.005 -0.0103,-0.031 q -0.031,-0.72347 0.5426,-1.2299 0.57361,-0.50643 1.51412,-0.50643 0.88367,0 1.43144,0.50643 0.54777,0.50643 0.54777,1.44694 v 2.29443 q 0,0.39274 0.0568,0.74414 0.0568,0.3514 0.1757,0.7028 z m -1.0697,-0.97152 q 0.28939,0 0.51676,-0.1757 0.22738,-0.18086 0.31006,-0.43408 v -0.8785 h -0.63562 q -0.3669,0 -0.53743,0.23771 -0.16537,0.23772 -0.16537,0.59945 0,0.28939 0.13953,0.47026 0.13953,0.18086 0.37207,0.18086 z"
         style="font-style:normal;font-variant:normal;font-weight:bold;font-stretch:condensed;font-size:10.58333302px;line-height:1.25;font-family:Roboto;-inkscape-font-specification:'Roboto Bold Condensed';letter-spacing:-0.46566668px;word-spacing:0px;fill:#333333;fill-opacity:1;stroke:none;stroke-width:0.26458332"
         id="path40" />
      <path
         inkscape:connector-curvature="0"
         d="m 106.36022,132.00326 0.062,0.78031 q 0.23771,-0.41857 0.57877,-0.65112 0.34624,-0.23254 0.76998,-0.23254 0.71314,0 1.11621,0.5581 0.40825,0.55294 0.40825,1.7415 v 3.39514 h -1.45728 v -3.39514 q 0,-0.63045 -0.15503,-0.88884 -0.14986,-0.26355 -0.45992,-0.26355 -0.24288,0 -0.43925,0.11369 -0.1912,0.11369 -0.32556,0.3204 v 4.11344 h -1.45727 v -5.59139 z"
         style="font-style:normal;font-variant:normal;font-weight:bold;font-stretch:condensed;font-size:10.58333302px;line-height:1.25;font-family:Roboto;-inkscape-font-specification:'Roboto Bold Condensed';letter-spacing:-0.46566668px;word-spacing:0px;fill:#333333;fill-opacity:1;stroke:none;stroke-width:0.26458332"
         id="path42" />
    </g>
    <path
       style="fill:#217844;fill-opacity:1;stroke:none;stroke-width:0.12763819px;stroke-linecap:butt;stroke-linejoin:miter;stroke-opacity:1"
       d="m 85.517008,132.60935 0.849554,-1.93934 6.27809,1.91024 -0.193968,1.98864 c -2.556208,1.35346 -5.112412,2.70693 -7.668616,4.0604 l -0.391467,-2.12778 c 1.859613,-0.89977 3.719226,-1.79954 5.578838,-2.69931 z"
       id="path4603"
       inkscape:connector-curvature="0"
       sodipodi:nodetypes="cccccccc" />
  </g>
</svg>
