<?xml version="1.0" encoding="UTF-8" standalone="no"?>
<!-- Created with Inkscape (http://www.inkscape.org/) -->

<svg
   xmlns:dc="http://purl.org/dc/elements/1.1/"
   xmlns:cc="http://creativecommons.org/ns#"
   xmlns:rdf="http://www.w3.org/1999/02/22-rdf-syntax-ns#"
   xmlns:svg="http://www.w3.org/2000/svg"
   xmlns="http://www.w3.org/2000/svg"
   xmlns:sodipodi="http://sodipodi.sourceforge.net/DTD/sodipodi-0.dtd"
   xmlns:inkscape="http://www.inkscape.org/namespaces/inkscape"
   width="65.129547mm"
   height="11.657598mm"
   viewBox="0 0 65.129547 11.657598"
   version="1.1"
   id="svg8"
   inkscape:version="0.92.3 (2405546, 2018-03-11)"
   sodipodi:docname="logo-dark.svg">
  <defs
     id="defs2" />
  <sodipodi:namedview
     id="base"
     pagecolor="#ffffff"
     bordercolor="#666666"
     borderopacity="1.0"
     inkscape:pageopacity="0.0"
     inkscape:pageshadow="2"
     inkscape:zoom="3.959798"
     inkscape:cx="83.27355"
     inkscape:cy="32.452632"
     inkscape:document-units="mm"
     inkscape:current-layer="text3715"
     showgrid="false"
     showguides="true"
     inkscape:guide-bbox="true"
     inkscape:window-width="1920"
     inkscape:window-height="1053"
     inkscape:window-x="0"
     inkscape:window-y="27"
     inkscape:window-maximized="1">
    <sodipodi:guide
       position="26.406454,27.326778"
       orientation="0,1"
       id="guide3732"
       inkscape:locked="false" />
  </sodipodi:namedview>
  <metadata
     id="metadata5">
    <rdf:RDF>
      <cc:Work
         rdf:about="">
        <dc:format>image/svg+xml</dc:format>
        <dc:type
           rdf:resource="http://purl.org/dc/dcmitype/StillImage" />
        <dc:title></dc:title>
      </cc:Work>
    </rdf:RDF>
  </metadata>
  <g
     inkscape:label="Camada 1"
     inkscape:groupmode="layer"
     id="layer1"
     transform="translate(-82.261696,-129.53971)">
    <g
       aria-label="Engineering Computer"
       style="font-style:normal;font-weight:normal;font-size:10.58333302px;line-height:1.25;font-family:sans-serif;letter-spacing:0px;word-spacing:0px;fill:#ffffff;fill-opacity:1;stroke:none;stroke-width:0.26458332"
       id="text3715-3">
      <path
         d="m 92.324318,138.64743 v 0.30198 h -0.905933 v 0.56585 h 0.714022 v 0.2921 h -0.714022 v 0.57715 h 0.905933 v 0.30339 h -1.286933 v -2.04047 z"
         style="font-style:normal;font-variant:normal;font-weight:bold;font-stretch:normal;font-size:2.82222223px;font-family:Lato;-inkscape-font-specification:'Lato Bold';fill:#ffffff;fill-opacity:1;stroke-width:0.26458332"
         id="path4667" />
      <path
         d="m 92.575364,140.6879 v -1.4478 h 0.213077 q 0.06773,0 0.0889,0.0635 l 0.02399,0.1143 q 0.04375,-0.0452 0.09172,-0.0819 0.04939,-0.0367 0.103011,-0.0635 0.05503,-0.0268 0.117122,-0.0409 0.06209,-0.0141 0.135467,-0.0141 0.118533,0 0.210255,0.0409 0.09172,0.0395 0.1524,0.11289 0.06209,0.072 0.09313,0.17357 0.03246,0.10019 0.03246,0.22154 v 0.92146 h -0.348544 v -0.92146 q 0,-0.13264 -0.06068,-0.20461 -0.06068,-0.0734 -0.184856,-0.0734 -0.09031,0 -0.169333,0.0409 -0.07902,0.0409 -0.149578,0.11148 v 1.04705 z"
         style="font-style:normal;font-variant:normal;font-weight:bold;font-stretch:normal;font-size:2.82222223px;font-family:Lato;-inkscape-font-specification:'Lato Bold';fill:#ffffff;fill-opacity:1;stroke-width:0.26458332"
         id="path4669" />
      <path
         d="m 94.697543,139.2147 q 0.09313,0 0.173566,0.0198 0.08185,0.0183 0.150989,0.055 h 0.416278 v 0.12982 q 0,0.0621 -0.07479,0.0762 l -0.129822,0.024 q 0.01411,0.0367 0.02117,0.0776 0.0085,0.0409 0.0085,0.0861 0,0.10724 -0.04374,0.19473 -0.04233,0.0861 -0.118534,0.14675 -0.0762,0.0607 -0.180622,0.0946 -0.103011,0.0324 -0.222955,0.0324 -0.08185,0 -0.159456,-0.0155 -0.06773,0.0409 -0.06773,0.0917 0,0.0438 0.03951,0.0649 0.04092,0.0198 0.107244,0.0282 0.06632,0.008 0.150989,0.0113 0.08467,0.001 0.173567,0.008 0.0889,0.007 0.173566,0.0254 0.08467,0.0169 0.150989,0.055 0.06632,0.0381 0.105834,0.10442 0.04092,0.0649 0.04092,0.16792 0,0.096 -0.04798,0.18627 -0.04657,0.0903 -0.136878,0.16086 -0.0889,0.0706 -0.220133,0.11289 -0.129822,0.0437 -0.296333,0.0437 -0.163689,0 -0.285045,-0.0325 -0.121355,-0.031 -0.201789,-0.0847 -0.08043,-0.0522 -0.119944,-0.12136 -0.03951,-0.0691 -0.03951,-0.14393 0,-0.10019 0.06068,-0.16934 0.06209,-0.0691 0.167922,-0.11006 -0.05644,-0.0296 -0.09031,-0.079 -0.03387,-0.0494 -0.03387,-0.12982 0,-0.0325 0.01129,-0.0663 0.01129,-0.0353 0.03387,-0.0691 0.02399,-0.0339 0.05927,-0.0635 0.03669,-0.031 0.08467,-0.055 -0.110067,-0.0593 -0.173567,-0.15804 -0.06209,-0.0988 -0.06209,-0.23142 0,-0.10725 0.04233,-0.19333 0.04374,-0.0875 0.119944,-0.14816 0.07761,-0.0621 0.182033,-0.0945 0.105834,-0.0325 0.230012,-0.0325 z m 0.3937,1.53811 q 0,-0.0423 -0.0254,-0.0677 -0.0254,-0.0268 -0.06915,-0.0423 -0.04374,-0.0155 -0.103011,-0.0226 -0.05786,-0.007 -0.124178,-0.01 -0.06491,-0.004 -0.135466,-0.007 -0.06915,-0.003 -0.135467,-0.0113 -0.05786,0.0325 -0.09454,0.0762 -0.03528,0.0438 -0.03528,0.1016 0,0.0381 0.01834,0.0706 0.01976,0.0339 0.06068,0.0578 0.04233,0.024 0.108655,0.0367 0.06632,0.0141 0.162278,0.0141 0.09737,0 0.167922,-0.0155 0.07056,-0.0141 0.115712,-0.0409 0.04657,-0.0254 0.06773,-0.0621 0.02117,-0.0353 0.02117,-0.0776 z m -0.3937,-0.82409 q 0.06491,0 0.112888,-0.0169 0.04798,-0.0183 0.07902,-0.0494 0.03245,-0.0311 0.04798,-0.0748 0.01693,-0.0437 0.01693,-0.096 0,-0.10724 -0.06491,-0.16933 -0.0635,-0.0635 -0.191911,-0.0635 -0.128412,0 -0.193323,0.0635 -0.0635,0.0621 -0.0635,0.16933 0,0.0508 0.01552,0.0945 0.01693,0.0437 0.04798,0.0762 0.03246,0.031 0.08043,0.0494 0.04939,0.0169 0.112889,0.0169 z"
         style="font-style:normal;font-variant:normal;font-weight:bold;font-stretch:normal;font-size:2.82222223px;font-family:Lato;-inkscape-font-specification:'Lato Bold';fill:#ffffff;fill-opacity:1;stroke-width:0.26458332"
         id="path4671" />
      <path
         d="m 96.017902,139.2401 v 1.4478 h -0.349956 v -1.4478 z m 0.04798,-0.42193 q 0,0.0452 -0.01835,0.0847 -0.01834,0.0395 -0.04939,0.0692 -0.02963,0.0296 -0.07055,0.048 -0.04092,0.0169 -0.08749,0.0169 -0.04516,0 -0.08608,-0.0169 -0.03951,-0.0183 -0.06914,-0.048 -0.02963,-0.0296 -0.04798,-0.0692 -0.01693,-0.0395 -0.01693,-0.0847 0,-0.0466 0.01693,-0.0875 0.01834,-0.0409 0.04798,-0.0706 0.02963,-0.0296 0.06914,-0.0466 0.04092,-0.0183 0.08608,-0.0183 0.04657,0 0.08749,0.0183 0.04092,0.0169 0.07055,0.0466 0.03104,0.0296 0.04939,0.0706 0.01835,0.0409 0.01835,0.0875 z"
         style="font-style:normal;font-variant:normal;font-weight:bold;font-stretch:normal;font-size:2.82222223px;font-family:Lato;-inkscape-font-specification:'Lato Bold';fill:#ffffff;fill-opacity:1;stroke-width:0.26458332"
         id="path4673" />
      <path
         d="m 96.373237,140.6879 v -1.4478 h 0.213078 q 0.06773,0 0.0889,0.0635 l 0.02399,0.1143 q 0.04374,-0.0452 0.09172,-0.0819 0.04939,-0.0367 0.103011,-0.0635 0.05503,-0.0268 0.117122,-0.0409 0.06209,-0.0141 0.135467,-0.0141 0.118533,0 0.210255,0.0409 0.09172,0.0395 0.1524,0.11289 0.06209,0.072 0.09313,0.17357 0.03245,0.10019 0.03245,0.22154 v 0.92146 h -0.348544 v -0.92146 q 0,-0.13264 -0.06068,-0.20461 -0.06068,-0.0734 -0.184856,-0.0734 -0.09031,0 -0.169333,0.0409 -0.07902,0.0409 -0.149578,0.11148 v 1.04705 z"
         style="font-style:normal;font-variant:normal;font-weight:bold;font-stretch:normal;font-size:2.82222223px;font-family:Lato;-inkscape-font-specification:'Lato Bold';fill:#ffffff;fill-opacity:1;stroke-width:0.26458332"
         id="path4675" />
      <path
         d="m 98.582905,139.21752 q 0.136878,0 0.252589,0.0437 0.115711,0.0438 0.198966,0.12841 0.08326,0.0833 0.129823,0.20603 0.04798,0.12135 0.04798,0.27799 0,0.079 -0.01693,0.10724 -0.01693,0.0268 -0.06491,0.0268 H 98.23436 q 0.0085,0.11148 0.03951,0.19332 0.03105,0.0804 0.08185,0.13406 0.0508,0.0522 0.119944,0.079 0.07056,0.0254 0.155223,0.0254 0.08467,0 0.145344,-0.0197 0.06209,-0.0198 0.107244,-0.0438 0.04657,-0.024 0.08043,-0.0437 0.03528,-0.0198 0.06773,-0.0198 0.04375,0 0.06491,0.0325 l 0.100189,0.127 q -0.05785,0.0677 -0.129822,0.1143 -0.07197,0.0452 -0.150989,0.0734 -0.07761,0.0268 -0.159456,0.0381 -0.08043,0.0113 -0.156633,0.0113 -0.150989,0 -0.280811,-0.0494 -0.129822,-0.0508 -0.225778,-0.14816 -0.09596,-0.0988 -0.150989,-0.24271 -0.05503,-0.14535 -0.05503,-0.33585 0,-0.14816 0.04798,-0.27799 0.04798,-0.13123 0.136877,-0.22719 0.09031,-0.0974 0.218723,-0.15381 0.129822,-0.0564 0.2921,-0.0564 z m 0.0071,0.24977 q -0.1524,0 -0.238478,0.0861 -0.08608,0.0861 -0.110066,0.24413 h 0.657578 q 0,-0.0677 -0.01976,-0.127 -0.01834,-0.0607 -0.05644,-0.10584 -0.0381,-0.0452 -0.09737,-0.0705 -0.05786,-0.0268 -0.135467,-0.0268 z"
         style="font-style:normal;font-variant:normal;font-weight:bold;font-stretch:normal;font-size:2.82222223px;font-family:Lato;-inkscape-font-specification:'Lato Bold';fill:#ffffff;fill-opacity:1;stroke-width:0.26458332"
         id="path4677" />
      <path
         d="m 100.08772,139.21752 q 0.13688,0 0.25259,0.0437 0.11571,0.0438 0.19897,0.12841 0.0832,0.0833 0.12982,0.20603 0.048,0.12135 0.048,0.27799 0,0.079 -0.0169,0.10724 -0.0169,0.0268 -0.0649,0.0268 h -0.896052 q 0.0085,0.11148 0.03951,0.19332 0.03104,0.0804 0.08184,0.13406 0.0508,0.0522 0.119945,0.079 0.07055,0.0254 0.155222,0.0254 0.0847,0 0.14534,-0.0197 0.0621,-0.0198 0.10725,-0.0438 0.0466,-0.024 0.0804,-0.0437 0.0353,-0.0198 0.0677,-0.0198 0.0437,0 0.0649,0.0325 l 0.10019,0.127 q -0.0579,0.0677 -0.12983,0.1143 -0.072,0.0452 -0.15099,0.0734 -0.0776,0.0268 -0.15945,0.0381 -0.0804,0.0113 -0.15663,0.0113 -0.150993,0 -0.280816,-0.0494 -0.129822,-0.0508 -0.225777,-0.14816 -0.09596,-0.0988 -0.150989,-0.24271 -0.05503,-0.14535 -0.05503,-0.33585 0,-0.14816 0.04798,-0.27799 0.04798,-0.13123 0.136878,-0.22719 0.09031,-0.0974 0.218722,-0.15381 0.129822,-0.0564 0.292098,-0.0564 z m 0.007,0.24977 q -0.152402,0 -0.23848,0.0861 -0.08608,0.0861 -0.110067,0.24413 h 0.657577 q 0,-0.0677 -0.0197,-0.127 -0.0183,-0.0607 -0.0564,-0.10584 -0.0381,-0.0452 -0.0974,-0.0705 -0.0579,-0.0268 -0.13546,-0.0268 z"
         style="font-style:normal;font-variant:normal;font-weight:bold;font-stretch:normal;font-size:2.82222223px;font-family:Lato;-inkscape-font-specification:'Lato Bold';fill:#ffffff;fill-opacity:1;stroke-width:0.26458332"
         id="path4679" />
      <path
         d="m 100.97588,140.6879 v -1.4478 h 0.20462 q 0.0536,0 0.0748,0.0197 0.0212,0.0183 0.0282,0.0677 l 0.0197,0.16368 q 0.0692,-0.12982 0.16228,-0.2032 0.0931,-0.0748 0.22013,-0.0748 0.10019,0 0.16087,0.0437 l -0.0226,0.26106 q -0.007,0.0254 -0.0212,0.0367 -0.0127,0.01 -0.0353,0.01 -0.0212,0 -0.0635,-0.007 -0.0409,-0.007 -0.0804,-0.007 -0.0579,0 -0.10301,0.0169 -0.0452,0.0169 -0.0818,0.0494 -0.0353,0.031 -0.0635,0.0762 -0.0268,0.0452 -0.0508,0.10301 v 0.89183 z"
         style="font-style:normal;font-variant:normal;font-weight:bold;font-stretch:normal;font-size:2.82222223px;font-family:Lato;-inkscape-font-specification:'Lato Bold';fill:#ffffff;fill-opacity:1;stroke-width:0.26458332"
         id="path4681" />
      <path
         d="m 102.38995,139.2401 v 1.4478 h -0.34996 v -1.4478 z m 0.048,-0.42193 q 0,0.0452 -0.0183,0.0847 -0.0183,0.0395 -0.0494,0.0692 -0.0296,0.0296 -0.0705,0.048 -0.0409,0.0169 -0.0875,0.0169 -0.0452,0 -0.0861,-0.0169 -0.0395,-0.0183 -0.0691,-0.048 -0.0296,-0.0296 -0.048,-0.0692 -0.0169,-0.0395 -0.0169,-0.0847 0,-0.0466 0.0169,-0.0875 0.0183,-0.0409 0.048,-0.0706 0.0296,-0.0296 0.0691,-0.0466 0.0409,-0.0183 0.0861,-0.0183 0.0466,0 0.0875,0.0183 0.0409,0.0169 0.0705,0.0466 0.0311,0.0296 0.0494,0.0706 0.0183,0.0409 0.0183,0.0875 z"
         style="font-style:normal;font-variant:normal;font-weight:bold;font-stretch:normal;font-size:2.82222223px;font-family:Lato;-inkscape-font-specification:'Lato Bold';fill:#ffffff;fill-opacity:1;stroke-width:0.26458332"
         id="path4683" />
      <path
         d="m 102.74529,140.6879 v -1.4478 h 0.21307 q 0.0677,0 0.0889,0.0635 l 0.024,0.1143 q 0.0437,-0.0452 0.0917,-0.0819 0.0494,-0.0367 0.10302,-0.0635 0.055,-0.0268 0.11712,-0.0409 0.0621,-0.0141 0.13546,-0.0141 0.11854,0 0.21026,0.0409 0.0917,0.0395 0.1524,0.11289 0.0621,0.072 0.0931,0.17357 0.0325,0.10019 0.0325,0.22154 v 0.92146 h -0.34855 v -0.92146 q 0,-0.13264 -0.0607,-0.20461 -0.0607,-0.0734 -0.18486,-0.0734 -0.0903,0 -0.16933,0.0409 -0.079,0.0409 -0.14958,0.11148 v 1.04705 z"
         style="font-style:normal;font-variant:normal;font-weight:bold;font-stretch:normal;font-size:2.82222223px;font-family:Lato;-inkscape-font-specification:'Lato Bold';fill:#ffffff;fill-opacity:1;stroke-width:0.26458332"
         id="path4685" />
      <path
         d="m 104.86746,139.2147 q 0.0931,0 0.17357,0.0198 0.0818,0.0183 0.15099,0.055 h 0.41628 v 0.12982 q 0,0.0621 -0.0748,0.0762 l -0.12982,0.024 q 0.0141,0.0367 0.0212,0.0776 0.008,0.0409 0.008,0.0861 0,0.10724 -0.0437,0.19473 -0.0423,0.0861 -0.11854,0.14675 -0.0762,0.0607 -0.18062,0.0946 -0.10301,0.0324 -0.22296,0.0324 -0.0818,0 -0.15945,-0.0155 -0.0677,0.0409 -0.0677,0.0917 0,0.0438 0.0395,0.0649 0.0409,0.0198 0.10724,0.0282 0.0663,0.008 0.15099,0.0113 0.0847,0.001 0.17357,0.008 0.0889,0.007 0.17356,0.0254 0.0847,0.0169 0.15099,0.055 0.0663,0.0381 0.10584,0.10442 0.0409,0.0649 0.0409,0.16792 0,0.096 -0.048,0.18627 -0.0466,0.0903 -0.13688,0.16086 -0.0889,0.0706 -0.22013,0.11289 -0.12982,0.0437 -0.29633,0.0437 -0.16369,0 -0.28505,-0.0325 -0.12135,-0.031 -0.20179,-0.0847 -0.0804,-0.0522 -0.11994,-0.12136 -0.0395,-0.0691 -0.0395,-0.14393 0,-0.10019 0.0607,-0.16934 0.0621,-0.0691 0.16793,-0.11006 -0.0565,-0.0296 -0.0903,-0.079 -0.0339,-0.0494 -0.0339,-0.12982 0,-0.0325 0.0113,-0.0663 0.0113,-0.0353 0.0339,-0.0691 0.024,-0.0339 0.0593,-0.0635 0.0367,-0.031 0.0847,-0.055 -0.11007,-0.0593 -0.17357,-0.15804 -0.0621,-0.0988 -0.0621,-0.23142 0,-0.10725 0.0423,-0.19333 0.0437,-0.0875 0.11994,-0.14816 0.0776,-0.0621 0.18203,-0.0945 0.10584,-0.0325 0.23001,-0.0325 z m 0.3937,1.53811 q 0,-0.0423 -0.0254,-0.0677 -0.0254,-0.0268 -0.0691,-0.0423 -0.0437,-0.0155 -0.10301,-0.0226 -0.0579,-0.007 -0.12418,-0.01 -0.0649,-0.004 -0.13547,-0.007 -0.0691,-0.003 -0.13546,-0.0113 -0.0579,0.0325 -0.0945,0.0762 -0.0353,0.0438 -0.0353,0.1016 0,0.0381 0.0183,0.0706 0.0198,0.0339 0.0607,0.0578 0.0423,0.024 0.10865,0.0367 0.0663,0.0141 0.16228,0.0141 0.0974,0 0.16792,-0.0155 0.0706,-0.0141 0.11571,-0.0409 0.0466,-0.0254 0.0677,-0.0621 0.0212,-0.0353 0.0212,-0.0776 z m -0.3937,-0.82409 q 0.0649,0 0.11289,-0.0169 0.048,-0.0183 0.079,-0.0494 0.0324,-0.0311 0.048,-0.0748 0.0169,-0.0437 0.0169,-0.096 0,-0.10724 -0.0649,-0.16933 -0.0635,-0.0635 -0.19192,-0.0635 -0.12841,0 -0.19332,0.0635 -0.0635,0.0621 -0.0635,0.16933 0,0.0508 0.0155,0.0945 0.0169,0.0437 0.048,0.0762 0.0325,0.031 0.0804,0.0494 0.0494,0.0169 0.11288,0.0169 z"
         style="font-style:normal;font-variant:normal;font-weight:bold;font-stretch:normal;font-size:2.82222223px;font-family:Lato;-inkscape-font-specification:'Lato Bold';fill:#ffffff;fill-opacity:1;stroke-width:0.26458332"
         id="path4687" />
      <path
         d="m 107.96635,140.20671 q 0.031,0 0.055,0.024 l 0.14957,0.16227 q -0.12417,0.15382 -0.30621,0.23566 -0.18062,0.0818 -0.43462,0.0818 -0.22719,0 -0.40922,-0.0776 -0.18062,-0.0776 -0.30903,-0.2159 -0.12842,-0.13829 -0.19756,-0.3302 -0.0677,-0.19191 -0.0677,-0.4191 0,-0.23001 0.0734,-0.42051 0.0734,-0.19191 0.20603,-0.3302 0.13405,-0.13829 0.31891,-0.21449 0.18485,-0.0776 0.40922,-0.0776 0.22296,0 0.39511,0.0734 0.17357,0.0734 0.29492,0.19191 l -0.127,0.17639 q -0.0113,0.0169 -0.0296,0.0296 -0.0169,0.0127 -0.048,0.0127 -0.0212,0 -0.0437,-0.0113 -0.0226,-0.0127 -0.0494,-0.0296 -0.0268,-0.0183 -0.0621,-0.0395 -0.0353,-0.0212 -0.0818,-0.0381 -0.0466,-0.0183 -0.10866,-0.0296 -0.0607,-0.0127 -0.14111,-0.0127 -0.13688,0 -0.25118,0.0494 -0.11289,0.048 -0.19473,0.14111 -0.0819,0.0917 -0.127,0.22577 -0.0452,0.13265 -0.0452,0.30339 0,0.17216 0.048,0.30621 0.0494,0.13406 0.13264,0.22578 0.0833,0.0917 0.19615,0.14111 0.11289,0.048 0.24271,0.048 0.0776,0 0.1397,-0.008 0.0635,-0.008 0.11571,-0.0268 0.0536,-0.0183 0.10019,-0.0466 0.048,-0.0296 0.0945,-0.072 0.0141,-0.0127 0.0296,-0.0198 0.0155,-0.008 0.0325,-0.008 z"
         style="font-style:normal;font-variant:normal;font-weight:bold;font-stretch:normal;font-size:2.82222223px;font-family:Lato;-inkscape-font-specification:'Lato Bold';fill:#ffffff;fill-opacity:1;stroke-width:0.26458332"
         id="path4689" />
      <path
         d="m 108.99179,139.21752 q 0.16087,0 0.2921,0.0522 0.13264,0.0522 0.22578,0.14817 0.0945,0.0959 0.14534,0.23424 0.0508,0.13829 0.0508,0.30903 0,0.17216 -0.0508,0.31045 -0.0508,0.13829 -0.14534,0.23565 -0.0931,0.0974 -0.22578,0.14958 -0.13123,0.0522 -0.2921,0.0522 -0.16228,0 -0.29492,-0.0522 -0.13265,-0.0522 -0.22719,-0.14958 -0.0931,-0.0974 -0.14535,-0.23565 -0.0508,-0.13829 -0.0508,-0.31045 0,-0.17074 0.0508,-0.30903 0.0522,-0.13829 0.14535,-0.23424 0.0945,-0.096 0.22719,-0.14817 0.13264,-0.0522 0.29492,-0.0522 z m 0,1.22343 q 0.18062,0 0.2667,-0.12135 0.0875,-0.12136 0.0875,-0.3556 0,-0.23425 -0.0875,-0.35701 -0.0861,-0.12277 -0.2667,-0.12277 -0.18345,0 -0.27235,0.12418 -0.0875,0.12276 -0.0875,0.3556 0,0.23283 0.0875,0.3556 0.0889,0.12135 0.27235,0.12135 z"
         style="font-style:normal;font-variant:normal;font-weight:bold;font-stretch:normal;font-size:2.82222223px;font-family:Lato;-inkscape-font-specification:'Lato Bold';fill:#ffffff;fill-opacity:1;stroke-width:0.26458332"
         id="path4691" />
      <path
         d="m 109.97172,140.6879 v -1.4478 h 0.21308 q 0.0677,0 0.0889,0.0635 l 0.0226,0.10724 q 0.0381,-0.0423 0.079,-0.0776 0.0423,-0.0353 0.0889,-0.0607 0.048,-0.0254 0.1016,-0.0395 0.055,-0.0155 0.11994,-0.0155 0.13688,0 0.22437,0.0748 0.0889,0.0734 0.13264,0.19614 0.0339,-0.072 0.0847,-0.12276 0.0508,-0.0522 0.11148,-0.0847 0.0607,-0.0325 0.12841,-0.048 0.0691,-0.0155 0.13829,-0.0155 0.11994,0 0.21307,0.0367 0.0931,0.0367 0.15664,0.10724 0.0635,0.0706 0.096,0.17216 0.0339,0.1016 0.0339,0.23283 v 0.92146 h -0.34855 v -0.92146 q 0,-0.13829 -0.0607,-0.20743 -0.0607,-0.0706 -0.1778,-0.0706 -0.0536,0 -0.10019,0.0183 -0.0452,0.0183 -0.0804,0.0536 -0.0339,0.0339 -0.0536,0.0861 -0.0198,0.0522 -0.0198,0.11994 v 0.92146 h -0.34996 v -0.92146 q 0,-0.14534 -0.0593,-0.21167 -0.0579,-0.0663 -0.17074,-0.0663 -0.0762,0 -0.14252,0.0381 -0.0649,0.0367 -0.12136,0.1016 v 1.05975 z"
         style="font-style:normal;font-variant:normal;font-weight:bold;font-stretch:normal;font-size:2.82222223px;font-family:Lato;-inkscape-font-specification:'Lato Bold';fill:#ffffff;fill-opacity:1;stroke-width:0.26458332"
         id="path4693" />
      <path
         d="m 112.33643,141.16062 v -1.92052 h 0.21308 q 0.0677,0 0.0889,0.0635 l 0.0282,0.13405 q 0.0875,-0.10019 0.20038,-0.16228 0.1143,-0.0621 0.2667,-0.0621 0.11853,0 0.2159,0.0494 0.0988,0.0494 0.16933,0.14394 0.072,0.0931 0.11007,0.23142 0.0395,0.13688 0.0395,0.31468 0,0.16228 -0.0437,0.30056 -0.0438,0.13829 -0.12559,0.23989 -0.0804,0.1016 -0.19615,0.15946 -0.1143,0.0564 -0.25682,0.0564 -0.12277,0 -0.20884,-0.0367 -0.0847,-0.0381 -0.1524,-0.10442 v 0.59267 z m 0.67734,-1.67217 q -0.10866,0 -0.18627,0.0466 -0.0762,0.0452 -0.14252,0.12841 v 0.64911 q 0.0593,0.0734 0.12841,0.10301 0.0705,0.0282 0.1524,0.0282 0.079,0 0.14252,-0.0296 0.0635,-0.0296 0.10724,-0.0903 0.0452,-0.0607 0.0692,-0.1524 0.024,-0.0931 0.024,-0.21872 0,-0.127 -0.0212,-0.21449 -0.0198,-0.0889 -0.0579,-0.14393 -0.0381,-0.055 -0.0931,-0.0804 -0.0536,-0.0254 -0.12276,-0.0254 z"
         style="font-style:normal;font-variant:normal;font-weight:bold;font-stretch:normal;font-size:2.82222223px;font-family:Lato;-inkscape-font-specification:'Lato Bold';fill:#ffffff;fill-opacity:1;stroke-width:0.26458332"
         id="path4695" />
      <path
         d="m 114.2749,139.2401 v 0.92004 q 0,0.13265 0.0607,0.20602 0.0621,0.072 0.18485,0.072 0.0903,0 0.16934,-0.0395 0.079,-0.0409 0.14958,-0.11148 v -1.04704 h 0.34854 v 1.4478 h -0.21308 q -0.0691,0 -0.0875,-0.0635 l -0.024,-0.11571 q -0.0452,0.0452 -0.0931,0.0832 -0.048,0.0367 -0.10301,0.0635 -0.055,0.0268 -0.11712,0.0409 -0.0621,0.0141 -0.13547,0.0141 -0.11853,0 -0.21025,-0.0395 -0.0903,-0.0409 -0.1524,-0.1143 -0.0621,-0.0734 -0.0945,-0.17356 -0.031,-0.1016 -0.031,-0.22296 v -0.92004 z"
         style="font-style:normal;font-variant:normal;font-weight:bold;font-stretch:normal;font-size:2.82222223px;font-family:Lato;-inkscape-font-specification:'Lato Bold';fill:#ffffff;fill-opacity:1;stroke-width:0.26458332"
         id="path4697" />
      <path
         d="m 116.01608,140.71047 q -0.18909,0 -0.29069,-0.10583 -0.10019,-0.10724 -0.10019,-0.29492 v -0.80857 h -0.14816 q -0.0282,0 -0.048,-0.0183 -0.0198,-0.0183 -0.0198,-0.055 v -0.13828 l 0.23284,-0.0381 0.0734,-0.39512 q 0.007,-0.0282 0.0268,-0.0437 0.0198,-0.0155 0.0508,-0.0155 h 0.18063 v 0.45579 h 0.38664 v 0.24835 h -0.38664 v 0.78458 q 0,0.0677 0.0325,0.10583 0.0339,0.0381 0.0917,0.0381 0.0325,0 0.0536,-0.007 0.0226,-0.008 0.0381,-0.0169 0.0169,-0.008 0.0296,-0.0155 0.0127,-0.008 0.0254,-0.008 0.0155,0 0.0254,0.008 0.01,0.007 0.0212,0.0226 l 0.10442,0.16933 q -0.0762,0.0635 -0.17498,0.096 -0.0988,0.0324 -0.20461,0.0324 z"
         style="font-style:normal;font-variant:normal;font-weight:bold;font-stretch:normal;font-size:2.82222223px;font-family:Lato;-inkscape-font-specification:'Lato Bold';fill:#ffffff;fill-opacity:1;stroke-width:0.26458332"
         id="path4699" />
      <path
         d="m 117.19745,139.21752 q 0.13687,0 0.25258,0.0437 0.11572,0.0438 0.19897,0.12841 0.0833,0.0833 0.12982,0.20603 0.048,0.12135 0.048,0.27799 0,0.079 -0.0169,0.10724 -0.0169,0.0268 -0.0649,0.0268 h -0.89606 q 0.008,0.11148 0.0395,0.19332 0.0311,0.0804 0.0819,0.13406 0.0508,0.0522 0.11994,0.079 0.0706,0.0254 0.15522,0.0254 0.0847,0 0.14535,-0.0197 0.0621,-0.0198 0.10724,-0.0438 0.0466,-0.024 0.0804,-0.0437 0.0353,-0.0198 0.0677,-0.0198 0.0437,0 0.0649,0.0325 l 0.10019,0.127 q -0.0579,0.0677 -0.12982,0.1143 -0.072,0.0452 -0.15099,0.0734 -0.0776,0.0268 -0.15946,0.0381 -0.0804,0.0113 -0.15663,0.0113 -0.15099,0 -0.28081,-0.0494 -0.12982,-0.0508 -0.22578,-0.14816 -0.096,-0.0988 -0.15099,-0.24271 -0.055,-0.14535 -0.055,-0.33585 0,-0.14816 0.048,-0.27799 0.048,-0.13123 0.13687,-0.22719 0.0903,-0.0974 0.21873,-0.15381 0.12982,-0.0564 0.2921,-0.0564 z m 0.007,0.24977 q -0.1524,0 -0.23848,0.0861 -0.0861,0.0861 -0.11006,0.24413 h 0.65757 q 0,-0.0677 -0.0198,-0.127 -0.0183,-0.0607 -0.0564,-0.10584 -0.0381,-0.0452 -0.0974,-0.0705 -0.0579,-0.0268 -0.13547,-0.0268 z"
         style="font-style:normal;font-variant:normal;font-weight:bold;font-stretch:normal;font-size:2.82222223px;font-family:Lato;-inkscape-font-specification:'Lato Bold';fill:#ffffff;fill-opacity:1;stroke-width:0.26458332"
         id="path4701" />
      <path
         d="m 118.08561,140.6879 v -1.4478 h 0.20461 q 0.0536,0 0.0748,0.0197 0.0212,0.0183 0.0282,0.0677 l 0.0198,0.16368 q 0.0691,-0.12982 0.16227,-0.2032 0.0931,-0.0748 0.22014,-0.0748 0.10019,0 0.16086,0.0437 l -0.0226,0.26106 q -0.007,0.0254 -0.0212,0.0367 -0.0127,0.01 -0.0353,0.01 -0.0212,0 -0.0635,-0.007 -0.0409,-0.007 -0.0804,-0.007 -0.0579,0 -0.10301,0.0169 -0.0452,0.0169 -0.0819,0.0494 -0.0353,0.031 -0.0635,0.0762 -0.0268,0.0452 -0.0508,0.10301 v 0.89183 z"
         style="font-style:normal;font-variant:normal;font-weight:bold;font-stretch:normal;font-size:2.82222223px;font-family:Lato;-inkscape-font-specification:'Lato Bold';fill:#ffffff;fill-opacity:1;stroke-width:0.26458332"
         id="path4703" />
    </g>
    <g
       id="g3792"
       transform="translate(-0.46294255)">
      <g
         aria-label="Codogno"
         style="font-style:normal;font-weight:normal;font-size:10.58333302px;line-height:1.25;font-family:sans-serif;letter-spacing:0px;word-spacing:0px;fill:#f08a0c;fill-opacity:1;stroke:none;stroke-width:0.26458332"
         id="text3715">
        <path
           d="m 114.45186,136.12783 q 0.29104,0 0.50271,-0.0423 0.21696,-0.0476 0.37042,-0.11642 0.15345,-0.0688 0.25929,-0.14816 0.10583,-0.0847 0.1905,-0.15346 0.0847,-0.0688 0.15875,-0.11113 0.0741,-0.0476 0.15875,-0.0476 0.0847,0 0.13758,0.0317 0.0582,0.0265 0.0847,0.0635 l 0.60325,0.72496 q -0.50271,0.59796 -1.19592,0.91016 -0.68792,0.30692 -1.56633,0.30692 -0.73025,0 -1.29646,-0.254 -0.56092,-0.25929 -0.94721,-0.70908 -0.38629,-0.44979 -0.58737,-1.06363 -0.1958,-0.61912 -0.1958,-1.3335 0,-0.66146 0.14817,-1.25412 0.14817,-0.59267 0.41804,-1.09538 0.26988,-0.50271 0.64559,-0.90487 0.381,-0.40217 0.84137,-0.68263 0.46038,-0.28046 0.98954,-0.42862 0.52917,-0.15346 1.10596,-0.15346 0.43392,0 0.78846,0.0847 0.35983,0.0794 0.64558,0.22754 0.29104,0.14287 0.51859,0.34396 0.22754,0.20108 0.39687,0.4445 l -0.60325,0.6985 q -0.0635,0.0741 -0.14817,0.13229 -0.0847,0.0582 -0.22225,0.0582 -0.09,0 -0.16404,-0.0423 -0.0741,-0.0423 -0.15346,-0.10054 -0.0741,-0.0635 -0.16933,-0.13758 -0.0952,-0.0741 -0.22754,-0.13229 -0.13229,-0.0635 -0.3175,-0.10584 -0.17992,-0.0423 -0.42863,-0.0423 -0.48683,0 -0.91016,0.20637 -0.41804,0.20638 -0.73025,0.59267 -0.30692,0.381 -0.48154,0.93133 -0.17463,0.54505 -0.17463,1.22238 0,0.49212 0.11642,0.87842 0.12171,0.38629 0.32808,0.65616 0.20638,0.26459 0.49213,0.40746 0.28575,0.13758 0.61912,0.13758 z"
           style="font-style:italic;font-variant:normal;font-weight:900;font-stretch:normal;font-family:Lato;-inkscape-font-specification:'Lato Heavy Italic';letter-spacing:-0.46566668px;fill:#ffffff;fill-opacity:1;stroke-width:0.26458332"
           id="path4652" />
        <path
           d="m 119.13135,136.32892 q 0.27517,0 0.49212,-0.16404 0.21696,-0.16934 0.36513,-0.45509 0.15346,-0.29104 0.23283,-0.67204 0.0847,-0.38629 0.0847,-0.82021 0,-0.59796 -0.16404,-0.85196 -0.15875,-0.25929 -0.52388,-0.25929 -0.27516,0 -0.49212,0.16934 -0.21696,0.16404 -0.37042,0.44979 -0.14817,0.28575 -0.23283,0.67204 -0.0794,0.38629 -0.0794,0.82021 0,0.58737 0.15875,0.85196 0.16404,0.25929 0.52917,0.25929 z m -0.14817,1.21708 q -0.46037,0 -0.86254,-0.15346 -0.39687,-0.15346 -0.69321,-0.4445 -0.29104,-0.29633 -0.46037,-0.72496 -0.16404,-0.43391 -0.16404,-0.99483 0,-0.73025 0.23812,-1.33879 0.24342,-0.61383 0.65088,-1.05833 0.40745,-0.4445 0.94191,-0.69321 0.53975,-0.24871 1.13242,-0.24871 0.46037,0 0.85725,0.15346 0.39687,0.15346 0.68792,0.44979 0.29633,0.29104 0.46566,0.72496 0.16934,0.42862 0.16934,0.98954 0,0.71967 -0.24342,1.3335 -0.23813,0.60854 -0.64558,1.05833 -0.40746,0.4445 -0.94721,0.6985 -0.53446,0.24871 -1.12713,0.24871 z"
           style="font-style:italic;font-variant:normal;font-weight:900;font-stretch:normal;font-family:Lato;-inkscape-font-specification:'Lato Heavy Italic';letter-spacing:-0.46566668px;fill:#ffffff;fill-opacity:1;stroke-width:0.26458332"
           id="path4654" />
        <path
           d="m 125.77074,137.46133 q -0.15346,0 -0.2593,-0.037 -0.10054,-0.0423 -0.16404,-0.11112 -0.0582,-0.0688 -0.0847,-0.16404 -0.0212,-0.0953 -0.0212,-0.20638 v -0.46037 q -0.37571,0.49741 -0.83079,0.78316 -0.45509,0.28046 -0.96838,0.28046 -0.33866,0 -0.61912,-0.11642 -0.28046,-0.1217 -0.48684,-0.3757 -0.20108,-0.254 -0.3175,-0.64559 -0.11112,-0.39687 -0.11112,-0.94721 0,-0.47625 0.10054,-0.92604 0.10054,-0.45508 0.28046,-0.85196 0.17992,-0.39687 0.42862,-0.72495 0.24871,-0.33338 0.54505,-0.56621 0.30162,-0.23813 0.635,-0.37042 0.33337,-0.13229 0.68791,-0.13229 0.33867,0 0.60854,0.11642 0.27517,0.11112 0.48155,0.29633 l 0.34925,-2.76225 h 1.60866 l -0.98425,7.92162 z m -1.67217,-1.16416 q 0.16933,0 0.34925,-0.127 0.18521,-0.127 0.35454,-0.34925 0.17463,-0.22225 0.32279,-0.51859 0.14817,-0.30162 0.254,-0.64558 l 0.16934,-1.3335 q -0.15346,-0.12171 -0.34396,-0.17462 -0.18521,-0.0529 -0.35454,-0.0529 -0.28575,0 -0.52917,0.1905 -0.23813,0.1905 -0.41275,0.50271 -0.17463,0.30691 -0.27517,0.70379 -0.0953,0.39687 -0.0953,0.80962 0,0.52388 0.15346,0.762 0.15346,0.23284 0.40746,0.23284 z"
           style="font-style:italic;font-variant:normal;font-weight:900;font-stretch:normal;font-family:Lato;-inkscape-font-specification:'Lato Heavy Italic';letter-spacing:-0.46566668px;fill:#ffffff;fill-opacity:1;stroke-width:0.26458332"
           id="path4656" />
        <path
           d="m 129.5895,136.32892 q 0.27517,0 0.49213,-0.16404 0.21695,-0.16934 0.36512,-0.45509 0.15346,-0.29104 0.23283,-0.67204 0.0847,-0.38629 0.0847,-0.82021 0,-0.59796 -0.16404,-0.85196 -0.15875,-0.25929 -0.52388,-0.25929 -0.27516,0 -0.49212,0.16934 -0.21696,0.16404 -0.37042,0.44979 -0.14816,0.28575 -0.23283,0.67204 -0.0794,0.38629 -0.0794,0.82021 0,0.58737 0.15875,0.85196 0.16405,0.25929 0.52917,0.25929 z m -0.14817,1.21708 q -0.46037,0 -0.86254,-0.15346 -0.39687,-0.15346 -0.69321,-0.4445 -0.29104,-0.29633 -0.46037,-0.72496 -0.16404,-0.43391 -0.16404,-0.99483 0,-0.73025 0.23812,-1.33879 0.24342,-0.61383 0.65088,-1.05833 0.40746,-0.4445 0.94191,-0.69321 0.53975,-0.24871 1.13242,-0.24871 0.46038,0 0.85725,0.15346 0.39688,0.15346 0.68792,0.44979 0.29633,0.29104 0.46566,0.72496 0.16934,0.42862 0.16934,0.98954 0,0.71967 -0.24342,1.3335 -0.23812,0.60854 -0.64558,1.05833 -0.40746,0.4445 -0.94721,0.6985 -0.53446,0.24871 -1.12713,0.24871 z"
           style="font-style:italic;font-variant:normal;font-weight:900;font-stretch:normal;font-family:Lato;-inkscape-font-specification:'Lato Heavy Italic';letter-spacing:-0.46566668px;fill:#ffffff;fill-opacity:1;stroke-width:0.26458332"
           id="path4658" />
        <path
           d="m 136.95004,133.61429 q 0,0.33867 -0.0952,0.57679 -0.09,0.23813 -0.20108,0.4498 -0.11112,0.21166 -0.20637,0.43391 -0.09,0.22225 -0.09,0.52388 0,0.21696 0.0688,0.40216 0.0741,0.17992 0.15875,0.37042 0.0847,0.1905 0.15346,0.40217 0.0741,0.21166 0.0741,0.48683 -0.005,0.42333 -0.1905,0.79904 -0.18521,0.381 -0.53446,0.66146 -0.34925,0.28575 -0.85725,0.44979 -0.508,0.16934 -1.15887,0.16934 -0.53446,0 -0.95779,-0.11113 -0.42334,-0.11112 -0.71967,-0.30162 -0.29104,-0.1905 -0.44979,-0.45509 -0.15875,-0.25929 -0.15875,-0.56091 0,-0.39688 0.17462,-0.67734 0.17463,-0.28575 0.46038,-0.47625 0.28575,-0.1905 0.65087,-0.29104 0.36513,-0.10583 0.74084,-0.14287 0.381,-0.0371 0.74083,-0.0159 0.35983,0.0159 0.64029,0.0688 -0.0106,-0.0635 -0.0106,-0.127 0,-0.0688 0,-0.14287 0,-0.28046 0.14287,-0.64029 -0.20637,0.13758 -0.47625,0.21695 -0.26458,0.0794 -0.66146,0.0794 -0.3122,0 -0.59795,-0.10054 -0.28575,-0.10584 -0.508,-0.3175 -0.21696,-0.21167 -0.34925,-0.52917 -0.1323,-0.32279 -0.1323,-0.762 0,-0.40746 0.15346,-0.79375 0.15875,-0.39158 0.46567,-0.69321 0.31221,-0.30691 0.76729,-0.49212 0.46038,-0.18521 1.06892,-0.18521 0.31221,0 0.59796,0.0741 0.29104,0.0688 0.53445,0.21167 h 1.57692 l -0.0741,0.51329 q -0.0476,0.30163 -0.30692,0.40746 l -0.46567,0.15875 q 0.0317,0.17462 0.0317,0.35983 z m -2.286,1.19592 q 0.1958,0 0.33867,-0.10054 0.14817,-0.10054 0.24342,-0.25929 0.0952,-0.16405 0.14287,-0.36513 0.0529,-0.20108 0.0582,-0.40746 0,-0.34396 -0.14287,-0.53446 -0.14288,-0.1905 -0.43921,-0.1905 -0.19579,0 -0.34396,0.0952 -0.14288,0.09 -0.23813,0.24342 -0.0952,0.15346 -0.14287,0.35454 -0.0476,0.20109 -0.0476,0.41804 0,0.34925 0.14288,0.55034 0.14287,0.19579 0.42862,0.19579 z m 0.65617,2.57704 q 0,-0.0317 0,-0.0635 0,-0.0317 -0.005,-0.0582 -0.53975,-0.09 -0.92075,-0.0847 -0.37571,0.005 -0.60854,0.0794 -0.23284,0.0688 -0.33867,0.1905 -0.10583,0.11642 -0.10583,0.25929 0,0.26988 0.19579,0.40746 0.20108,0.13758 0.67204,0.13758 0.24342,0 0.44979,-0.0635 0.20638,-0.0635 0.34925,-0.17991 0.14817,-0.11113 0.22754,-0.26988 0.0847,-0.15875 0.0847,-0.35454 z"
           style="font-style:italic;font-variant:normal;font-weight:900;font-stretch:normal;font-family:Lato;-inkscape-font-specification:'Lato Heavy Italic';letter-spacing:-0.46566668px;fill:#ffffff;fill-opacity:1;stroke-width:0.26458332"
           id="path4660" />
        <path
           d="m 140.52225,137.46133 0.41275,-3.4872 q 0.0265,-0.22225 0.0159,-0.37571 -0.005,-0.15346 -0.0529,-0.24342 -0.0476,-0.09 -0.13229,-0.127 -0.0847,-0.0423 -0.20109,-0.0423 -0.17991,0 -0.37571,0.11112 -0.19579,0.11113 -0.3757,0.31221 -0.17463,0.20108 -0.3228,0.49213 -0.14816,0.28575 -0.23283,0.635 l -0.30162,2.7252 h -1.64042 l 0.65617,-5.48745 h 0.84666 q 0.254,0 0.39688,0.1217 0.14287,0.11642 0.14287,0.3863 v 0.4392 q 0.39688,-0.52916 0.86784,-0.77787 0.47095,-0.254 0.97366,-0.254 0.33867,0 0.61913,0.13758 0.28575,0.13759 0.47096,0.40217 0.1905,0.26458 0.26987,0.65617 0.0794,0.38629 0.0159,0.889 l -0.41275,3.4872 z"
           style="font-style:italic;font-variant:normal;font-weight:900;font-stretch:normal;font-family:Lato;-inkscape-font-specification:'Lato Heavy Italic';letter-spacing:-0.46566668px;fill:#ffffff;fill-opacity:1;stroke-width:0.26458332"
           id="path4662" />
        <path
           d="m 145.03902,136.32892 q 0.27516,0 0.49212,-0.16404 0.21696,-0.16934 0.36513,-0.45509 0.15345,-0.29104 0.23283,-0.67204 0.0847,-0.38629 0.0847,-0.82021 0,-0.59796 -0.16405,-0.85196 -0.15875,-0.25929 -0.52387,-0.25929 -0.27517,0 -0.49213,0.16934 -0.21695,0.16404 -0.37041,0.44979 -0.14817,0.28575 -0.23284,0.67204 -0.0794,0.38629 -0.0794,0.82021 0,0.58737 0.15875,0.85196 0.16404,0.25929 0.52917,0.25929 z m -0.14817,1.21708 q -0.46038,0 -0.86254,-0.15346 -0.39688,-0.15346 -0.69321,-0.4445 -0.29104,-0.29633 -0.46038,-0.72496 -0.16404,-0.43391 -0.16404,-0.99483 0,-0.73025 0.23813,-1.33879 0.24341,-0.61383 0.65087,-1.05833 0.40746,-0.4445 0.94192,-0.69321 0.53975,-0.24871 1.13242,-0.24871 0.46037,0 0.85725,0.15346 0.39687,0.15346 0.68791,0.44979 0.29634,0.29104 0.46567,0.72496 0.16933,0.42862 0.16933,0.98954 0,0.71967 -0.24341,1.3335 -0.23813,0.60854 -0.64559,1.05833 -0.40746,0.4445 -0.94721,0.6985 -0.53445,0.24871 -1.12712,0.24871 z"
           style="font-style:italic;font-variant:normal;font-weight:900;font-stretch:normal;font-family:Lato;-inkscape-font-specification:'Lato Heavy Italic';letter-spacing:-0.46566668px;fill:#ffffff;fill-opacity:1;stroke-width:0.26458332"
           id="path4664" />
      </g>
      <g
         aria-label="Jean"
         style="font-style:normal;font-weight:normal;font-size:10.58333302px;line-height:1.25;font-family:sans-serif;letter-spacing:0px;word-spacing:0px;fill:#ffffff;fill-opacity:1;stroke:none;stroke-width:0.26458332"
         id="text3715-7">
        <path
           d="m 95.124413,134.65032 q -0.07937,0.64558 -0.291041,1.16946 -0.211667,0.52387 -0.560917,0.89958 -0.34925,0.37571 -0.836083,0.58209 -0.481542,0.20108 -1.105959,0.20108 -0.280458,0 -0.550333,-0.0318 -0.264583,-0.0317 -0.550333,-0.10583 l 0.127,-0.98955 q 0.01588,-0.13229 0.08996,-0.21695 0.07937,-0.09 0.248708,-0.09 0.127,0 0.28575,0.0318 0.15875,0.0265 0.34925,0.0265 0.428625,0 0.703792,-0.33338 0.275167,-0.33867 0.365125,-1.10067 l 0.60325,-4.98475 h 1.725083 z"
           style="font-style:italic;font-variant:normal;font-weight:900;font-stretch:normal;font-family:Lato;-inkscape-font-specification:'Lato Heavy Italic';letter-spacing:-0.46566668px;word-spacing:0px;fill:#ffffff;fill-opacity:1;stroke-width:0.26458332"
           id="path4643" />
        <path
           d="m 100.1763,133.27978 q 0,0.37571 -0.14817,0.68792 -0.148162,0.3122 -0.518579,0.55562 -0.365125,0.23813 -0.989542,0.40746 -0.619125,0.16933 -1.561041,0.26458 0.01058,0.56092 0.243416,0.82021 0.238125,0.25929 0.6985,0.25929 0.216959,0 0.375709,-0.037 0.15875,-0.037 0.275166,-0.0952 0.121709,-0.0582 0.216959,-0.12171 0.09525,-0.0635 0.179916,-0.12171 0.08996,-0.0582 0.185209,-0.0952 0.09525,-0.037 0.216958,-0.037 0.07937,0 0.153458,0.0423 0.07408,0.037 0.132292,0.10054 l 0.423329,0.49212 q -0.291037,0.28575 -0.571496,0.49742 -0.275166,0.20637 -0.5715,0.34396 -0.291041,0.13229 -0.624416,0.19579 -0.328084,0.0635 -0.719667,0.0635 -0.486833,0 -0.894292,-0.16404 -0.407458,-0.16934 -0.703791,-0.47096 -0.291042,-0.30692 -0.455084,-0.73554 -0.15875,-0.42863 -0.15875,-0.9525 0,-0.43921 0.09525,-0.85725 0.100542,-0.41804 0.280459,-0.78317 0.185208,-0.37042 0.449791,-0.67733 0.264584,-0.31221 0.592667,-0.53446 0.333375,-0.22225 0.724958,-0.34396 0.396875,-0.127 0.841375,-0.127 0.439209,0 0.777875,0.127 0.343959,0.127 0.576792,0.33338 0.232833,0.20108 0.354539,0.45508 0.12171,0.254 0.12171,0.508 z m -1.926166,-0.3175 q -0.407458,0 -0.714375,0.32808 -0.306916,0.32279 -0.460375,0.889 0.513292,-0.0794 0.830792,-0.16404 0.3175,-0.09 0.492125,-0.1905 0.174625,-0.10583 0.232833,-0.22225 0.0635,-0.12171 0.0635,-0.25929 0,-0.13758 -0.105833,-0.25929 -0.105833,-0.12171 -0.338667,-0.12171 z"
           style="font-style:italic;font-variant:normal;font-weight:900;font-stretch:normal;font-family:Lato;-inkscape-font-specification:'Lato Heavy Italic';letter-spacing:-0.46566668px;word-spacing:0px;fill:#ffffff;fill-opacity:1;stroke-width:0.26458332"
           id="path4645" />
        <path
           d="m 104.67571,137.41786 h -0.87842 q -0.15346,0 -0.25929,-0.037 -0.10054,-0.0423 -0.16404,-0.11112 -0.0582,-0.0688 -0.0847,-0.16405 -0.0212,-0.0952 -0.0212,-0.20637 v -0.39158 q -0.33866,0.46566 -0.75141,0.73025 -0.41275,0.26458 -0.91017,0.26458 -0.29633,0 -0.5715,-0.11642 -0.27517,-0.12171 -0.48683,-0.35983 -0.21167,-0.24342 -0.33867,-0.61383 -0.127,-0.37571 -0.127,-0.88371 0,-0.74613 0.26987,-1.41288 0.27517,-0.67204 0.762,-1.17475 0.49213,-0.50271 1.16417,-0.79904 0.67204,-0.29633 1.47638,-0.29633 0.39158,0 0.79375,0.0529 0.40216,0.0529 0.79375,0.1905 z m -2.413,-1.21179 q 0.17991,0 0.34925,-0.13229 0.16933,-0.13758 0.3175,-0.37042 0.15345,-0.23283 0.28045,-0.54504 0.127,-0.31221 0.21696,-0.66675 l 0.1905,-1.51871 h -0.0952 q -0.40216,0 -0.73554,0.17992 -0.32808,0.17992 -0.56621,0.49212 -0.23812,0.30692 -0.37041,0.71967 -0.127,0.40746 -0.127,0.87313 0,0.26458 0.0423,0.44979 0.0423,0.18521 0.11112,0.30162 0.0741,0.11113 0.16934,0.16404 0.10054,0.0529 0.21696,0.0529 z"
           style="font-style:italic;font-variant:normal;font-weight:900;font-stretch:normal;font-family:Lato;-inkscape-font-specification:'Lato Heavy Italic';letter-spacing:-0.46566668px;word-spacing:0px;fill:#ffffff;fill-opacity:1;stroke-width:0.26458332"
           id="path4647" />
        <path
           d="m 108.46189,137.41786 0.41275,-3.48721 q 0.0265,-0.22225 0.0159,-0.3757 -0.005,-0.15346 -0.0529,-0.24342 -0.0476,-0.09 -0.13229,-0.127 -0.0847,-0.0423 -0.20108,-0.0423 -0.17992,0 -0.37571,0.11112 -0.19579,0.11113 -0.37571,0.31221 -0.17463,0.20108 -0.32279,0.49212 -0.14817,0.28575 -0.23284,0.635 l -0.30162,2.72521 h -1.64042 l 0.65617,-5.48746 h 0.84667 q 0.254,0 0.39687,0.12171 0.14288,0.11642 0.14288,0.38629 v 0.43921 q 0.39687,-0.52916 0.86783,-0.77787 0.47096,-0.254 0.97367,-0.254 0.33866,0 0.61912,0.13758 0.28575,0.13758 0.47096,0.40217 0.1905,0.26458 0.26987,0.65616 0.0794,0.3863 0.0159,0.889 l -0.41275,3.48721 z"
           style="font-style:italic;font-variant:normal;font-weight:900;font-stretch:normal;font-family:Lato;-inkscape-font-specification:'Lato Heavy Italic';letter-spacing:-0.46566668px;word-spacing:0px;fill:#ffffff;fill-opacity:1;stroke-width:0.26458332"
           id="path4649" />
      </g>
    </g>
    <path
       style="fill:#ffffff;fill-opacity:1;stroke:none;stroke-width:0.12763819px;stroke-linecap:butt;stroke-linejoin:miter;stroke-opacity:1"
       d="m 83.3254,131.4091 1.079822,-1.82119 6.527288,3.19112 -0.435152,1.95012 -8.106728,3.09442 -0.128934,-2.15965 5.866498,-1.99847 z"
       id="path4603"
       inkscape:connector-curvature="0" />
  </g>
</svg>
